<svg version="1.1" id="Layer_1" xmlns="http://www.w3.org/2000/svg" xmlns:xlink="http://www.w3.org/1999/xlink" x="0px" y="0px"
	 width="100%" viewBox="0 0 316 337" enable-background="new 0 0 316 337" xml:space="preserve">
<path fill="#FEFEFF" opacity="1.000000" stroke="none" 
	d="
M209.000000,338.000000 
	C139.333344,338.000000 70.166695,338.000000 1.000028,338.000000 
	C1.000019,225.666702 1.000019,113.333397 1.000009,1.000073 
	C106.333282,1.000049 211.666565,1.000049 316.999878,1.000024 
	C316.999939,113.333260 316.999939,225.666519 316.999969,337.999878 
	C281.166656,338.000000 245.333328,338.000000 209.000000,338.000000 
M142.000992,195.999390 
	C142.000992,195.999390 142.011414,196.021545 142.717316,196.090271 
	C143.327835,195.778000 143.938370,195.465714 145.083359,195.315414 
	C145.763336,195.094315 146.443298,194.873215 147.964478,194.575439 
	C151.835190,193.166397 155.705917,191.757339 160.130783,190.333511 
	C160.776688,189.977203 161.422577,189.620895 162.805176,189.203033 
	C163.537506,189.115860 164.269852,189.028687 165.588348,189.303650 
	C166.671249,189.671997 167.754150,190.040329 169.356644,190.848114 
	C175.518738,192.764603 181.563736,195.401306 187.870697,196.426880 
	C197.074646,197.923508 206.429337,198.089157 214.678650,190.987152 
	C215.762360,189.661743 216.846085,188.336334 218.018051,186.943130 
	C218.018051,186.943130 217.952652,186.853088 218.421722,186.362869 
	C219.932190,182.857132 221.442657,179.351410 223.191315,175.621841 
	C223.297745,175.382935 223.243256,175.189163 223.383759,174.187759 
	C223.259064,171.171509 223.134369,168.155243 223.249313,164.462387 
	C222.820145,162.669769 222.390991,160.877167 222.014542,158.358704 
	C221.639114,157.237381 221.263672,156.116058 220.939331,154.227188 
	C218.969345,149.798141 216.999359,145.369095 215.131363,140.339905 
	C215.151688,139.935471 215.172028,139.531052 215.680923,138.662521 
	C216.540375,136.514694 217.399826,134.366852 218.788177,131.758636 
	C220.411667,125.568924 222.573578,119.459564 223.512527,113.167686 
	C224.522537,106.399689 223.374924,99.702950 218.891525,93.307045 
	C214.284164,86.450432 207.045227,84.577454 199.641190,82.902687 
	C199.641190,82.902687 199.370056,82.832413 199.370056,82.832413 
	C199.370056,82.832413 199.310593,83.100494 198.403275,82.928963 
	C195.972580,82.926918 193.541870,82.924873 190.730942,82.662788 
	C190.171280,82.781425 189.611633,82.900063 188.507889,82.942764 
	C188.333405,82.998344 188.158936,83.053932 187.160919,82.972710 
	C184.444916,83.680237 181.728928,84.387764 178.478760,85.070808 
	C178.240509,85.309303 178.002258,85.547798 177.876144,85.786522 
	C177.876144,85.786522 177.806198,85.698868 177.068451,85.815796 
	C173.068069,87.626549 169.067688,89.437309 164.473145,91.218346 
	C164.281601,91.269623 164.090042,91.320908 163.475876,91.158119 
	C163.475876,91.158119 163.002228,91.150833 162.623535,90.562767 
	C153.813980,86.270576 145.045410,81.825371 134.819519,82.337280 
	C123.727379,82.892555 113.420547,85.424065 108.152939,96.465225 
	C102.853424,107.573265 104.596924,118.711670 109.744263,130.129395 
	C110.096642,130.872940 110.449028,131.616470 110.851250,132.736511 
	C110.851250,132.736511 111.087013,133.037659 111.145805,133.551956 
	C111.404297,133.750549 111.662796,133.949158 111.826004,134.138412 
	C111.826004,134.138412 111.777779,134.221115 111.821213,135.000870 
	C112.507095,136.483124 113.192970,137.965363 113.545471,140.097076 
	C110.958008,147.589798 107.630249,154.918228 105.923843,162.606491 
	C101.076363,184.447052 115.894981,199.800446 138.817337,196.587524 
	C139.438553,196.430939 140.059753,196.274338 140.996887,196.385803 
	C141.337311,196.263443 141.677734,196.141083 142.000992,195.999390 
z"/>
<path fill="#50C5F2" opacity="1.000000" stroke="none" 
	d="
M109.742218,129.507294 
	C104.596924,118.711670 102.853424,107.573265 108.152939,96.465225 
	C113.420547,85.424065 123.727379,82.892555 134.819519,82.337280 
	C145.045410,81.825371 153.813980,86.270576 162.841217,91.063629 
	C163.058899,91.564499 163.111847,91.979362 162.780533,92.115326 
	C161.301956,92.498917 160.154694,92.746536 158.661926,92.853325 
	C154.889648,91.844009 151.462845,90.975517 147.585205,90.056786 
	C144.423386,90.003349 141.712418,90.000153 138.596909,89.990005 
	C135.795898,90.657494 133.399445,91.331917 130.655212,92.037903 
	C127.895241,93.846390 124.205452,94.897537 126.011063,99.458717 
	C121.489685,102.309288 120.404388,106.185059 121.512802,110.803749 
	C122.241997,113.842239 123.209198,116.823616 123.851288,120.125977 
	C122.858551,120.643005 121.924034,120.659721 121.336189,121.119576 
	C117.575081,124.061775 111.491409,123.806213 109.742218,129.507294 
z"/>
<path fill="#4EC6F2" opacity="1.000000" stroke="none" 
	d="
M138.175140,196.608322 
	C115.894981,199.800446 101.076363,184.447052 105.923843,162.606491 
	C107.630249,154.918228 110.958008,147.589798 113.775085,139.987640 
	C114.342094,140.577148 114.679497,141.276062 115.151436,142.273163 
	C116.507370,144.072372 117.728767,145.573425 118.963142,147.393784 
	C118.988251,148.139587 119.000381,148.566086 118.733879,149.237061 
	C117.426285,153.114243 116.282898,156.719208 115.393501,160.385773 
	C113.808449,166.920181 116.216698,172.912704 121.067169,174.972107 
	C121.054893,175.002243 121.058357,174.940781 121.053818,175.247131 
	C121.369537,176.034042 121.689789,176.514618 122.284851,177.199341 
	C125.044388,178.658127 127.529129,179.912735 130.269867,181.404449 
	C131.684097,181.762039 132.842361,181.882553 134.005646,182.382721 
	C135.398834,187.377686 136.786987,191.992996 138.175140,196.608322 
z"/>
<path fill="#424CEE" opacity="1.000000" stroke="none" 
	d="
M199.589615,83.114799 
	C207.045227,84.577454 214.284164,86.450432 218.921310,93.677368 
	C218.951096,94.047699 218.858154,94.132645 218.529236,94.045952 
	C217.275421,93.280159 216.427887,92.429893 215.405014,91.967583 
	C214.262039,91.450989 212.959976,91.286385 211.727173,90.968590 
	C211.951523,92.275665 212.055359,93.620285 212.446426,94.875420 
	C212.672913,95.602325 213.361725,96.185181 213.861664,96.858704 
	C213.245560,98.014198 212.277313,99.006966 212.238174,100.035103 
	C211.952332,107.541603 211.923553,115.057671 211.661636,122.565414 
	C211.550964,125.737572 211.073563,128.896942 210.492538,131.887756 
	C207.854767,128.496216 205.487320,125.279053 203.372833,121.821365 
	C205.011520,117.538933 206.986435,113.590744 207.647705,109.433594 
	C208.694168,102.854599 204.899475,98.804558 198.283325,99.119225 
	C194.536316,99.297447 190.835434,100.444992 187.208893,100.802216 
	C187.093414,98.773956 186.988007,97.077621 186.646103,95.430374 
	C186.198166,93.272285 185.563538,91.152939 185.338287,89.010391 
	C186.105972,88.997574 186.544586,88.991310 187.378754,89.037514 
	C192.315414,90.237625 196.856522,91.385262 201.451065,92.546402 
	C202.029572,90.383293 202.564041,88.384827 203.071426,86.487648 
	C198.729630,85.432320 194.387451,84.376900 190.311920,83.222305 
	C190.756119,83.056366 190.933640,82.989594 191.111176,82.922829 
	C193.541870,82.924873 195.972580,82.926918 198.925201,83.030823 
	C199.447144,83.132690 199.589615,83.114799 199.589615,83.114799 
z"/>
<path fill="#4138ED" opacity="1.000000" stroke="none" 
	d="
M214.011841,190.932556 
	C206.429337,198.089157 197.074646,197.923508 187.870697,196.426880 
	C181.563736,195.401306 175.518738,192.764603 169.173920,190.252594 
	C174.392075,184.547806 180.455902,181.890198 188.042969,184.128143 
	C190.069183,184.725784 192.294601,184.609314 194.389267,185.020798 
	C200.953278,186.310226 207.498520,187.695190 214.040405,189.357727 
	C214.023773,190.092392 214.017807,190.512482 214.011841,190.932556 
z"/>
<path fill="#4FC0F3" opacity="1.000000" stroke="none" 
	d="
M109.743240,129.818344 
	C111.491409,123.806213 117.575081,124.061775 121.336189,121.119576 
	C121.924034,120.659721 122.858551,120.643005 124.102951,120.324371 
	C125.650909,120.313812 127.080093,120.877098 127.737221,120.392799 
	C129.379181,119.182678 130.670670,117.497002 132.457855,116.009079 
	C138.813614,119.508018 143.348343,124.192665 145.077469,131.106949 
	C145.044022,131.081314 145.121780,131.048798 144.854919,131.177414 
	C144.420441,131.654892 144.252838,132.003769 143.949036,132.642975 
	C141.857193,135.293854 139.901550,137.654373 137.714081,140.010345 
	C137.482269,140.005783 137.019699,139.973419 136.897354,139.697144 
	C136.177826,138.616043 135.580658,137.811203 134.848480,136.709320 
	C133.464615,134.945465 132.215729,133.478668 130.848389,131.705780 
	C129.487442,129.927368 128.244949,128.455063 126.997154,126.609039 
	C126.535995,123.062408 125.204552,122.278191 122.309097,124.143562 
	C119.444443,125.989075 116.261230,127.338150 113.381866,129.163803 
	C112.286522,129.858292 111.648087,131.273361 110.801407,132.360016 
	C110.449028,131.616470 110.096642,130.872940 109.743240,129.818344 
z"/>
<path fill="#4146EE" opacity="1.000000" stroke="none" 
	d="
M214.051041,189.043121 
	C207.498520,187.695190 200.953278,186.310226 194.389267,185.020798 
	C192.294601,184.609314 190.069183,184.725784 188.042969,184.128143 
	C180.455902,181.890198 174.392075,184.547806 168.914124,190.032867 
	C167.754150,190.040329 166.671249,189.671997 165.467682,188.875580 
	C166.227676,187.957672 167.108322,187.467819 168.336670,186.956940 
	C170.204254,185.709549 171.622299,184.320816 173.265091,183.290390 
	C176.759094,181.098831 180.369904,179.093521 184.261276,177.111725 
	C186.425629,178.054031 188.261566,178.896515 190.282547,180.076141 
	C194.194031,180.905472 197.912018,181.699936 201.649261,181.804016 
	C205.314453,181.906082 208.998962,181.081635 212.675446,181.077698 
	C216.267593,181.073853 218.848587,182.507172 217.952652,186.853088 
	C217.952652,186.853088 218.018051,186.943130 217.688782,187.121552 
	C216.256683,187.881027 215.153870,188.462067 214.051041,189.043121 
z"/>
<path fill="#4893F3" opacity="1.000000" stroke="none" 
	d="
M159.007431,92.994148 
	C160.154694,92.746536 161.301956,92.498917 162.934845,92.048691 
	C163.622498,91.731232 163.781845,91.573265 163.898483,91.372185 
	C164.090042,91.320908 164.281601,91.269623 164.907425,91.511093 
	C165.227814,93.202354 165.113907,94.600868 164.864288,96.280518 
	C163.814407,97.372002 162.900223,98.182358 161.680038,99.128716 
	C159.815536,100.936325 156.652374,103.649651 156.953720,104.113861 
	C159.254471,107.657921 162.230804,110.763397 164.997437,114.240433 
	C164.997910,114.475540 164.983948,114.945541 164.635468,115.006561 
	C162.269348,116.426018 160.251709,117.784470 157.909485,118.983566 
	C156.233963,117.184990 154.743744,115.639580 153.562714,113.885948 
	C151.463135,110.768417 149.806961,107.802078 153.807388,104.480736 
	C156.831711,101.969795 154.079498,100.360344 152.196106,98.721756 
	C154.599930,96.631783 156.803680,94.812958 159.007431,92.994148 
z"/>
<path fill="#4EB2F1" opacity="1.000000" stroke="none" 
	d="
M134.000610,182.003052 
	C132.842361,181.882553 131.684097,181.762039 130.690384,181.332672 
	C135.603027,179.380722 140.351151,177.737610 145.324677,176.081024 
	C145.550095,176.067566 145.984222,176.199768 146.053635,176.526398 
	C147.400131,178.534378 149.043884,180.052322 149.880737,181.929886 
	C151.840561,186.326904 155.073685,189.006256 159.576630,190.348297 
	C155.705917,191.757339 151.835190,193.166397 147.501648,194.200577 
	C145.860809,191.873779 144.203110,190.058548 143.600235,187.942734 
	C142.145981,182.839066 138.942352,181.166855 134.000610,182.003052 
z"/>
<path fill="#4893F3" opacity="1.000000" stroke="none" 
	d="
M167.988983,186.977966 
	C167.108322,187.467819 166.227676,187.957672 165.174606,188.694519 
	C164.269852,189.028687 163.537506,189.115860 162.385803,188.832703 
	C159.565430,182.523911 160.654419,173.472321 150.137878,174.697266 
	C153.544250,172.606873 156.737595,170.782257 160.246750,168.951782 
	C161.045288,168.596817 161.528030,168.247726 162.218323,167.826965 
	C162.425903,167.755280 162.860596,167.692459 162.932632,168.080078 
	C163.777542,171.464386 164.409149,174.507462 165.373260,177.441299 
	C166.009766,179.378235 167.124176,181.158127 168.020935,183.405640 
	C168.007843,184.861298 167.998413,185.919632 167.988983,186.977966 
z"/>
<path fill="#48A1F3" opacity="1.000000" stroke="none" 
	d="
M149.924850,174.963058 
	C160.654419,173.472321 159.565430,182.523911 162.017456,188.863464 
	C161.422577,189.620895 160.776688,189.977203 159.853699,190.340912 
	C155.073685,189.006256 151.840561,186.326904 149.880737,181.929886 
	C149.043884,180.052322 147.400131,178.534378 146.396576,176.457092 
	C147.755035,175.695129 148.839935,175.329086 149.924850,174.963058 
z"/>
<path fill="#445BEF" opacity="1.000000" stroke="none" 
	d="
M218.187195,186.607971 
	C218.848587,182.507172 216.267593,181.073853 212.675446,181.077698 
	C208.998962,181.081635 205.314453,181.906082 201.649261,181.804016 
	C197.912018,181.699936 194.194031,180.905472 190.701599,180.074432 
	C196.361862,180.989563 201.765656,182.056702 206.844696,177.796814 
	C207.365845,177.396591 207.577682,177.056976 207.733063,176.774536 
	C207.676620,176.831726 207.593857,176.693970 207.889923,176.714325 
	C208.451385,176.468689 208.716766,176.202698 209.083069,175.725449 
	C209.374649,175.253448 209.623138,175.071808 210.360321,174.978760 
	C214.805054,175.036560 218.818909,175.084869 222.866119,175.310745 
	C222.899490,175.488327 222.953125,175.845673 222.953125,175.845673 
	C221.442657,179.351410 219.932190,182.857132 218.187195,186.607971 
z"/>
<path fill="#4FC0F3" opacity="1.000000" stroke="none" 
	d="
M134.005646,182.382706 
	C138.942352,181.166855 142.145981,182.839066 143.600235,187.942734 
	C144.203110,190.058548 145.860809,191.873779 147.081024,194.238922 
	C146.443298,194.873215 145.763336,195.094315 144.451752,195.210327 
	C143.217224,195.410690 142.614319,195.716110 142.011414,196.021545 
	C142.011414,196.021545 142.000992,195.999390 141.674347,196.021484 
	C141.125473,196.068298 140.903214,196.093018 140.680969,196.117737 
	C140.059753,196.274338 139.438553,196.430939 138.496246,196.597931 
	C136.786987,191.992996 135.398834,187.377686 134.005646,182.382706 
z"/>
<path fill="#445BEF" opacity="1.000000" stroke="none" 
	d="
M190.045258,83.321487 
	C194.387451,84.376900 198.729630,85.432320 203.071426,86.487648 
	C202.564041,88.384827 202.029572,90.383293 201.451065,92.546402 
	C196.856522,91.385262 192.315414,90.237625 187.380432,88.687973 
	C187.319183,86.560471 187.651825,84.834999 187.984451,83.109520 
	C188.158936,83.053932 188.333405,82.998344 189.032257,83.042908 
	C189.719498,83.202522 189.882370,83.262001 190.045258,83.321487 
z"/>
<path fill="#4367EF" opacity="1.000000" stroke="none" 
	d="
M222.832764,175.133179 
	C218.818909,175.084869 214.805054,175.036560 210.503189,174.661667 
	C211.175049,172.230118 212.134918,170.125153 213.531586,168.014465 
	C217.180771,167.677902 221.045074,169.401016 223.009674,165.138992 
	C223.134369,168.155243 223.259064,171.171509 223.155579,174.633972 
	C222.927399,175.080185 222.832764,175.133179 222.832764,175.133179 
z"/>
<path fill="#48A1F3" opacity="1.000000" stroke="none" 
	d="
M127.002464,126.982750 
	C128.244949,128.455063 129.487442,129.927368 130.491150,131.740356 
	C125.844101,134.065628 121.435852,136.050247 116.302818,138.361160 
	C116.098701,138.934799 115.557800,140.454895 115.016907,141.974991 
	C114.679497,141.276062 114.342094,140.577148 113.941772,139.662918 
	C113.192970,137.965363 112.507095,136.483124 112.209610,134.540070 
	C117.399490,131.713745 122.200981,129.348251 127.002464,126.982750 
z"/>
<path fill="#4EB2F1" opacity="1.000000" stroke="none" 
	d="
M126.997154,126.609039 
	C122.200981,129.348251 117.399490,131.713745 112.187897,134.150177 
	C111.777779,134.221115 111.826004,134.138412 111.806625,133.909027 
	C111.634201,133.377945 111.400795,133.163956 111.087013,133.037659 
	C111.087013,133.037659 110.851250,132.736511 110.826332,132.548264 
	C111.648087,131.273361 112.286522,129.858292 113.381866,129.163803 
	C116.261230,127.338150 119.444443,125.989075 122.309097,124.143562 
	C125.204552,122.278191 126.535995,123.062408 126.997154,126.609039 
z"/>
<path fill="#478BF1" opacity="1.000000" stroke="none" 
	d="
M220.888245,154.994736 
	C221.263672,156.116058 221.639114,157.237381 221.754486,159.004486 
	C218.693863,160.111725 215.893295,160.573181 213.053314,160.620361 
	C212.658035,157.802246 212.302139,155.398376 212.341949,152.950806 
	C215.904007,151.848022 219.111755,150.627365 220.888245,154.994736 
z"/>
<path fill="#4876F0" opacity="1.000000" stroke="none" 
	d="
M213.092712,161.034622 
	C215.893295,160.573181 218.693863,160.111725 221.728149,159.367401 
	C222.390991,160.877167 222.820145,162.669769 223.129486,164.800690 
	C221.045074,169.401016 217.180771,167.677902 213.504974,167.576691 
	C213.058609,165.107971 213.075668,163.071304 213.092712,161.034622 
z"/>
<path fill="#4876F0" opacity="1.000000" stroke="none" 
	d="
M187.572693,83.041115 
	C187.651825,84.834999 187.319183,86.560471 186.984863,88.635498 
	C186.544586,88.991310 186.105972,88.997574 184.963745,89.042892 
	C181.505325,90.054024 178.750519,91.026100 175.621414,91.998169 
	C174.498276,91.998367 173.749435,91.998573 173.034576,91.654602 
	C174.647766,89.439896 176.226974,87.569374 177.806183,85.698868 
	C177.806198,85.698868 177.876144,85.786522 178.077332,85.777908 
	C178.523315,85.544624 178.768127,85.319954 179.012924,85.095284 
	C181.728928,84.387764 184.444916,83.680237 187.572693,83.041115 
z"/>
<path fill="#424CEE" opacity="1.000000" stroke="none" 
	d="
M218.998322,94.006088 
	C223.374924,99.702950 224.522537,106.399689 223.512527,113.167686 
	C222.573578,119.459564 220.411667,125.568924 218.441238,131.922119 
	C218.094299,132.085587 217.928101,131.953918 217.952545,131.556412 
	C219.320175,125.754715 221.028488,120.409676 221.915848,114.931648 
	C223.075027,107.775627 221.299011,100.860069 218.858154,94.132645 
	C218.858154,94.132645 218.951096,94.047699 218.998322,94.006088 
z"/>
<path fill="#48A1F3" opacity="1.000000" stroke="none" 
	d="
M220.913788,154.610962 
	C219.111755,150.627365 215.904007,151.848022 212.084198,152.735825 
	C210.947693,151.048401 210.464630,149.532257 210.194763,147.732361 
	C212.130676,146.713348 213.853363,145.978104 215.557495,145.250778 
	C215.375854,143.768234 215.202606,142.354141 215.029358,140.940063 
	C216.999359,145.369095 218.969345,149.798141 220.913788,154.610962 
z"/>
<path fill="#49ADF4" opacity="1.000000" stroke="none" 
	d="
M215.080353,140.639984 
	C215.202606,142.354141 215.375854,143.768234 215.557495,145.250778 
	C213.853363,145.978104 212.130676,146.713348 209.914062,147.513397 
	C208.608826,144.719360 207.797516,141.860489 207.354065,138.996841 
	C209.801743,138.991684 211.881577,138.991302 214.270401,139.013397 
	C214.783722,139.066116 214.988037,139.096359 215.192352,139.126617 
	C215.172028,139.531052 215.151688,139.935471 215.080353,140.639984 
z"/>
<path fill="#4888F2" opacity="1.000000" stroke="none" 
	d="
M177.437317,85.757324 
	C176.226974,87.569374 174.647766,89.439896 172.847351,91.918716 
	C171.085968,93.353447 169.545761,94.179878 167.709167,95.128601 
	C166.608505,95.500381 165.804260,95.749878 165.000000,95.999390 
	C165.113907,94.600868 165.227814,93.202354 165.204498,91.525948 
	C169.067688,89.437309 173.068069,87.626549 177.437317,85.757324 
z"/>
<path fill="#424CEE" opacity="1.000000" stroke="none" 
	d="
M215.436630,138.894562 
	C214.988037,139.096359 214.783722,139.066116 214.242828,138.676941 
	C213.565262,137.256943 213.224289,136.195847 213.244507,135.093628 
	C215.046494,134.019638 216.487289,132.986786 217.928101,131.953918 
	C217.928101,131.953918 218.094299,132.085587 218.176788,132.152313 
	C217.399826,134.366852 216.540375,136.514694 215.436630,138.894562 
z"/>
<path fill="#445BEF" opacity="1.000000" stroke="none" 
	d="
M214.040405,189.357727 
	C215.153870,188.462067 216.256683,187.881027 217.644653,187.155457 
	C216.846085,188.336334 215.762360,189.661743 214.345245,190.959854 
	C214.017807,190.512482 214.023773,190.092392 214.040405,189.357727 
z"/>
<path fill="#4876F0" opacity="1.000000" stroke="none" 
	d="
M190.311920,83.222313 
	C189.882370,83.262001 189.719498,83.202522 189.304291,83.080872 
	C189.611633,82.900063 190.171280,82.781425 190.921051,82.792809 
	C190.933640,82.989594 190.756119,83.056366 190.311920,83.222313 
z"/>
<path fill="#4EC6F2" opacity="1.000000" stroke="none" 
	d="
M142.364365,196.055908 
	C142.614319,195.716110 143.217224,195.410690 144.184509,195.129349 
	C143.938370,195.465714 143.327835,195.778000 142.364365,196.055908 
z"/>
<path fill="#4876F0" opacity="1.000000" stroke="none" 
	d="
M222.866119,175.310760 
	C222.832764,175.133179 222.927399,175.080185 222.977631,175.060364 
	C223.243256,175.189163 223.297745,175.382935 223.072220,175.733765 
	C222.953125,175.845673 222.899490,175.488327 222.866119,175.310760 
z"/>
<path fill="#4EC6F2" opacity="1.000000" stroke="none" 
	d="
M140.838928,196.251770 
	C140.903214,196.093018 141.125473,196.068298 141.682938,196.031158 
	C141.677734,196.141083 141.337311,196.263443 140.838928,196.251770 
z"/>
<path fill="#48A1F3" opacity="1.000000" stroke="none" 
	d="
M111.116409,133.294800 
	C111.400795,133.163956 111.634201,133.377945 111.854263,133.913696 
	C111.662796,133.949158 111.404297,133.750549 111.116409,133.294800 
z"/>
<path fill="#4888F2" opacity="1.000000" stroke="none" 
	d="
M163.687180,91.265152 
	C163.781845,91.573265 163.622498,91.731232 163.266144,91.912727 
	C163.111847,91.979362 163.058899,91.564499 163.030563,91.357666 
	C163.002228,91.150833 163.475876,91.158119 163.687180,91.265152 
z"/>
<path fill="#4888F2" opacity="1.000000" stroke="none" 
	d="
M178.745850,85.083046 
	C178.768127,85.319954 178.523315,85.544624 178.021271,85.777786 
	C178.002258,85.547798 178.240509,85.309303 178.745850,85.083046 
z"/>
<path fill="#4876F0" opacity="1.000000" stroke="none" 
	d="
M199.615402,83.008743 
	C199.589615,83.114799 199.447144,83.132690 199.378876,83.116592 
	C199.310593,83.100494 199.370056,82.832413 199.370056,82.832413 
	C199.370056,82.832413 199.641190,82.902687 199.615402,83.008743 
z"/>
<path fill="#F4FBFF" opacity="1.000000" stroke="none" 
	d="
M132.102798,116.002151 
	C130.670670,117.497002 129.379181,119.182678 127.737221,120.392799 
	C127.080093,120.877098 125.650909,120.313812 124.321487,120.028969 
	C123.209198,116.823616 122.241997,113.842239 121.512802,110.803749 
	C120.404388,106.185059 121.489685,102.309288 126.428696,99.449448 
	C129.063431,99.083260 131.039246,98.977432 133.387512,98.970474 
	C137.097794,100.122772 140.435638,101.176193 143.902130,102.457306 
	C144.342865,102.830498 144.654938,102.975998 144.852066,103.429688 
	C140.525696,107.825974 136.314240,111.914062 132.102798,116.002151 
z"/>
<path fill="#4367EF" opacity="1.000000" stroke="none" 
	d="
M158.661926,92.853317 
	C156.803680,94.812958 154.599930,96.631783 151.901199,98.844238 
	C150.609344,99.499611 149.812469,99.761353 148.734177,99.770737 
	C147.969833,96.685059 147.486923,93.851730 147.217957,90.917984 
	C147.702438,90.639519 147.903824,90.402672 148.036057,90.107025 
	C151.462845,90.975517 154.889648,91.844009 158.661926,92.853317 
z"/>
<path fill="#478BF1" opacity="1.000000" stroke="none" 
	d="
M147.585205,90.056786 
	C147.903824,90.402672 147.702438,90.639519 146.800354,90.911743 
	C145.115921,91.902374 143.207428,92.766052 143.171600,93.701469 
	C143.066818,96.437012 143.708633,99.201157 143.985809,102.021965 
	C143.913727,102.089836 143.773468,102.229614 143.773468,102.229614 
	C140.435638,101.176193 137.097794,100.122772 133.394287,98.753693 
	C133.028610,98.438026 133.047409,98.004028 133.466919,98.004807 
	C136.673950,98.319435 138.301971,97.537178 138.070450,94.264145 
	C137.971878,92.870674 138.667023,91.421059 139.001465,89.996956 
	C141.712418,90.000153 144.423386,90.003349 147.585205,90.056786 
z"/>
<path fill="#4599F2" opacity="1.000000" stroke="none" 
	d="
M138.596909,89.990005 
	C138.667023,91.421059 137.971878,92.870674 138.070450,94.264145 
	C138.301971,97.537178 136.673950,98.319435 133.086243,97.928635 
	C131.858353,95.903236 131.430664,93.954788 131.002991,92.006340 
	C133.399445,91.331917 135.795898,90.657494 138.596909,89.990005 
z"/>
<path fill="#4EB2F1" opacity="1.000000" stroke="none" 
	d="
M130.655212,92.037903 
	C131.430664,93.954788 131.858353,95.903236 132.666718,97.927856 
	C133.047409,98.004028 133.028610,98.438026 133.021835,98.654816 
	C131.039246,98.977432 129.063431,99.083260 126.669968,99.198357 
	C124.205452,94.897537 127.895241,93.846390 130.655212,92.037903 
z"/>
<path fill="#F4FBFF" opacity="1.000000" stroke="none" 
	d="
M145.099274,176.094513 
	C140.351151,177.737610 135.603027,179.380722 130.434387,181.095581 
	C127.529129,179.912735 125.044388,178.658127 122.274719,176.898224 
	C121.679321,175.908890 121.368835,175.424835 121.058357,174.940781 
	C121.058357,174.940781 121.054893,175.002243 121.090523,174.550079 
	C122.459068,168.669937 123.791985,163.241959 125.446495,157.877289 
	C127.107269,159.076111 128.446442,160.211639 129.812500,161.535553 
	C129.839386,161.723969 130.090820,162.009705 130.149368,162.309784 
	C130.752701,162.840927 131.297485,163.071991 131.865540,163.229889 
	C131.888794,163.156708 131.735596,163.167404 131.792023,163.454559 
	C132.178604,163.915268 132.508728,164.088837 132.849976,164.197479 
	C132.861099,164.132568 132.734818,164.170013 132.793152,164.455872 
	C133.182816,164.914856 133.514130,165.087982 133.801544,165.219086 
	C133.757645,165.177094 133.706894,165.287506 133.792236,165.587433 
	C135.100357,166.981735 136.323135,168.076111 137.719833,169.468155 
	C140.295593,171.875381 142.697433,173.984940 145.099274,176.094513 
z"/>
<path fill="#58CAF5" opacity="1.000000" stroke="none" 
	d="
M125.124893,157.813995 
	C123.791985,163.241959 122.459068,168.669937 121.102798,174.519943 
	C116.216698,172.912704 113.808449,166.920181 115.393501,160.385773 
	C116.282898,156.719208 117.426285,153.114243 119.005699,149.354340 
	C120.276726,149.523087 120.997299,149.819000 121.790588,150.463257 
	C122.932167,152.532242 124.001030,154.252899 125.078896,156.281616 
	C125.100227,156.997787 125.112556,157.405899 125.124893,157.813995 
z"/>
<path fill="#4599F2" opacity="1.000000" stroke="none" 
	d="
M115.151443,142.273163 
	C115.557800,140.454895 116.098701,138.934799 116.302818,138.361160 
	C121.435852,136.050247 125.844101,134.065628 130.609589,132.046448 
	C132.215729,133.478668 133.464615,134.945465 134.457275,136.708008 
	C131.098160,138.293777 128.039474,140.506378 124.882065,140.657578 
	C120.152451,140.884079 119.110161,143.262711 118.950165,147.074478 
	C117.728767,145.573425 116.507370,144.072372 115.151443,142.273163 
z"/>
<path fill="#478BF1" opacity="1.000000" stroke="none" 
	d="
M118.963142,147.393784 
	C119.110161,143.262711 120.152451,140.884079 124.882065,140.657578 
	C128.039474,140.506378 131.098160,138.293777 134.592255,137.005035 
	C135.580658,137.811203 136.177826,138.616043 136.589905,139.853912 
	C132.634171,145.244141 124.684814,143.956665 121.717865,150.114899 
	C120.997299,149.819000 120.276726,149.523087 119.284340,149.109879 
	C119.000381,148.566086 118.988251,148.139587 118.963142,147.393784 
z"/>
<path fill="#58CAF5" opacity="1.000000" stroke="none" 
	d="
M121.053818,175.247131 
	C121.368835,175.424835 121.679321,175.908890 121.999924,176.694061 
	C121.689789,176.514618 121.369537,176.034042 121.053818,175.247131 
z"/>
<path fill="#4241EF" opacity="1.000000" stroke="none" 
	d="
M217.952545,131.556412 
	C216.487289,132.986786 215.046494,134.019638 213.257126,135.073990 
	C212.908569,135.095474 212.938934,135.065659 212.853882,134.829132 
	C212.503586,134.398071 212.238342,134.203552 211.739136,133.881409 
	C211.254440,133.500000 211.003693,133.246170 210.766174,132.759918 
	C210.779404,132.527466 210.762863,132.062119 210.762863,132.062119 
	C211.073563,128.896942 211.550964,125.737572 211.661636,122.565414 
	C211.923553,115.057671 211.952332,107.541603 212.238174,100.035103 
	C212.277313,99.006966 213.245560,98.014198 213.861664,96.858704 
	C213.361725,96.185181 212.672913,95.602325 212.446426,94.875420 
	C212.055359,93.620285 211.951523,92.275665 211.727173,90.968590 
	C212.959976,91.286385 214.262039,91.450989 215.405014,91.967583 
	C216.427887,92.429893 217.275421,93.280159 218.529236,94.045952 
	C221.299011,100.860069 223.075027,107.775627 221.915848,114.931648 
	C221.028488,120.409676 219.320175,125.754715 217.952545,131.556412 
z"/>
<path fill="#F5F9FF" opacity="1.000000" stroke="none" 
	d="
M187.113770,101.155968 
	C190.835434,100.444992 194.536316,99.297447 198.283325,99.119225 
	C204.899475,98.804558 208.694168,102.854599 207.647705,109.433594 
	C206.986435,113.590744 205.011520,117.538933 203.060547,121.673233 
	C196.301193,115.522659 190.107132,109.279701 184.120071,102.860443 
	C184.414169,102.525864 184.501266,102.367569 184.709442,102.235062 
	C184.830505,102.260841 184.983322,102.066101 185.295502,102.061691 
	C186.109283,101.734879 186.610886,101.412468 187.093018,101.106400 
	C187.073532,101.122742 187.113770,101.155968 187.113770,101.155968 
z"/>
<path fill="#52C3F4" opacity="1.000000" stroke="none" 
	d="
M183.913086,103.036743 
	C190.107132,109.279701 196.301193,115.522659 202.807556,121.913742 
	C205.487320,125.279053 207.854767,128.496216 210.492538,131.887756 
	C210.762863,132.062119 210.779404,132.527466 210.400070,132.820175 
	C207.017578,133.073959 204.014404,133.035034 200.976944,132.656204 
	C199.968048,130.871155 198.993439,129.425995 197.886383,127.680954 
	C196.520126,125.906120 195.286316,124.431190 193.907898,122.662170 
	C192.512299,120.905342 191.261276,119.442604 189.866852,117.696236 
	C188.494278,116.256744 187.265106,115.100883 185.882248,113.654114 
	C184.209366,112.201004 182.690170,111.038788 181.148865,109.875191 
	C181.126755,109.873810 181.084763,109.887932 181.003571,109.655334 
	C180.723633,109.134689 180.451157,108.964989 180.058350,108.946930 
	C180.011734,108.980247 180.086563,108.893356 180.002396,108.662079 
	C179.724564,108.138847 179.454544,107.966507 179.104584,107.898514 
	C179.100998,107.883255 179.130844,107.873573 179.121918,107.651962 
	C179.112976,107.430344 178.999390,106.999695 179.020264,106.651825 
	C180.665115,105.214897 182.289108,104.125824 183.913086,103.036743 
z"/>
<path fill="#445BEF" opacity="1.000000" stroke="none" 
	d="
M184.983322,102.066101 
	C184.983322,102.066101 184.830505,102.260841 184.293518,102.174728 
	C178.154602,101.044044 176.857864,96.688240 175.995728,91.998169 
	C178.750519,91.026100 181.505325,90.054024 184.634659,89.049438 
	C185.563538,91.152939 186.198166,93.272285 186.646103,95.430374 
	C186.988007,97.077621 187.093414,98.773956 187.208893,100.802216 
	C187.113770,101.155968 187.073532,101.122742 186.776520,101.105110 
	C185.980789,101.413681 185.482056,101.739891 184.983322,102.066101 
z"/>
<path fill="#FBFDFF" opacity="1.000000" stroke="none" 
	d="
M158.234085,119.142914 
	C160.251709,117.784470 162.269348,116.426018 164.880127,115.232056 
	C167.555603,116.974144 169.637939,118.551743 171.895355,120.419113 
	C174.134048,122.437317 176.197693,124.165756 178.369263,126.187851 
	C179.542999,127.379227 180.608795,128.276947 181.834106,129.468170 
	C183.349838,131.169418 184.706039,132.577164 186.216507,134.268097 
	C187.886658,136.106445 189.402527,137.661606 190.919922,139.500916 
	C190.942062,140.162888 190.962692,140.540741 190.681686,141.052032 
	C189.264267,142.500778 188.148483,143.816071 186.773682,145.248047 
	C186.241043,145.843048 185.967422,146.321350 185.752533,146.822845 
	C185.811264,146.846054 185.783005,146.722961 185.517914,146.796783 
	C185.076843,147.178299 184.900879,147.485977 184.763885,147.757965 
	C184.802826,147.722244 184.697144,147.722015 184.391266,147.830627 
	C182.081894,150.012589 180.078400,152.085938 177.760895,154.259735 
	C174.661423,156.912537 171.875977,159.464874 169.053375,162.010712 
	C169.016235,162.004211 169.003326,162.078064 168.761475,162.136017 
	C168.217789,162.371567 168.018509,162.628662 167.613068,163.065811 
	C166.189468,163.795731 165.074539,164.425079 163.719116,164.828293 
	C161.393890,163.029877 159.309158,161.457596 157.077911,159.577301 
	C154.316483,157.112991 151.701584,154.956726 149.084656,152.864532 
	C149.082626,152.928604 149.207382,152.899170 149.126846,152.592255 
	C148.390564,151.799026 147.734833,151.312714 147.121002,150.835129 
	C147.162903,150.843872 147.194763,150.764404 147.058426,150.463806 
	C144.913528,148.124161 142.904968,146.085098 140.804443,143.746094 
	C139.790283,142.302399 138.868088,141.158646 137.945892,140.014893 
	C139.901550,137.654373 141.857193,135.293854 144.201324,132.493073 
	C144.767120,131.718155 144.944458,131.383469 145.121780,131.048798 
	C145.121780,131.048798 145.044022,131.081314 145.389069,130.984894 
	C148.448929,128.251587 151.163773,125.614685 154.181595,122.854004 
	C155.734406,121.534447 156.984253,120.338684 158.234085,119.142914 
z"/>
<path fill="#4EB2F1" opacity="1.000000" stroke="none" 
	d="
M153.878616,122.977783 
	C151.163773,125.614685 148.448929,128.251587 145.422516,131.010529 
	C143.348343,124.192665 138.813614,119.508018 132.457855,116.009079 
	C136.314240,111.914062 140.525696,107.825974 144.856750,103.351852 
	C144.976349,102.965820 145.009933,102.813538 145.258575,102.867767 
	C145.675415,102.944214 145.843597,102.966431 145.966614,103.373451 
	C145.673203,107.548691 144.451920,111.619301 145.440750,115.053535 
	C146.504272,118.747200 148.303055,123.327606 153.878616,122.977783 
z"/>
<path fill="#4579F0" opacity="1.000000" stroke="none" 
	d="
M137.714081,140.010345 
	C138.868088,141.158646 139.790283,142.302399 140.545868,143.951477 
	C139.104691,145.705475 138.014984,147.694031 136.521683,148.067108 
	C131.615845,149.292709 128.538666,152.851517 125.069885,155.973557 
	C124.001030,154.252899 122.932167,152.532242 121.790588,150.463257 
	C124.684814,143.956665 132.634171,145.244141 136.712250,140.130173 
	C137.019699,139.973419 137.482269,140.005783 137.714081,140.010345 
z"/>
<path fill="#4EB2F1" opacity="1.000000" stroke="none" 
	d="
M144.854919,131.177414 
	C144.944458,131.383469 144.767120,131.718155 144.337524,132.202728 
	C144.252838,132.003769 144.420441,131.654892 144.854919,131.177414 
z"/>
<path fill="#F5F9FF" opacity="1.000000" stroke="none" 
	d="
M206.535370,177.857391 
	C201.765656,182.056702 196.361862,180.989563 190.516541,179.737289 
	C188.261566,178.896515 186.425629,178.054031 184.301941,176.788696 
	C185.020691,175.251175 186.027191,174.136490 187.348389,172.906219 
	C190.713669,169.845490 193.764267,166.900360 197.109283,163.802536 
	C199.027008,161.789673 200.650299,159.929489 202.597748,158.155823 
	C207.019928,163.423386 208.105011,169.420166 207.604797,176.036743 
	C207.527405,176.248322 207.593857,176.693970 207.593857,176.693970 
	C207.593857,176.693970 207.676620,176.831726 207.438354,176.844818 
	C206.978500,177.191086 206.756927,177.524231 206.535370,177.857391 
z"/>
<path fill="#4876F0" opacity="1.000000" stroke="none" 
	d="
M187.033691,173.021805 
	C186.027191,174.136490 185.020691,175.251175 183.973511,176.688873 
	C180.369904,179.093521 176.759094,181.098831 173.265091,183.290390 
	C171.622299,184.320816 170.204254,185.709549 168.336670,186.956955 
	C167.998413,185.919632 168.007843,184.861298 168.400085,183.320312 
	C170.187378,177.039658 171.702621,171.265381 172.950516,165.433868 
	C173.593933,162.427109 171.636246,161.741577 169.090530,162.017227 
	C171.875977,159.464874 174.661423,156.912537 177.990219,154.501633 
	C182.874588,156.705917 185.591202,162.168396 184.531647,166.870865 
	C183.928421,169.548065 182.985672,172.275223 187.033691,173.021805 
z"/>
<path fill="#48A1F3" opacity="1.000000" stroke="none" 
	d="
M154.181595,122.854004 
	C148.303055,123.327606 146.504272,118.747200 145.440750,115.053535 
	C144.451920,111.619301 145.673203,107.548691 146.244705,103.242615 
	C147.383850,101.825684 148.199722,100.924385 149.015594,100.023102 
	C149.812469,99.761353 150.609344,99.499611 151.701111,99.115387 
	C154.079498,100.360344 156.831711,101.969795 153.807388,104.480736 
	C149.806961,107.802078 151.463135,110.768417 153.562714,113.885948 
	C154.743744,115.639580 156.233963,117.184990 157.909485,118.983566 
	C156.984253,120.338684 155.734406,121.534447 154.181595,122.854004 
z"/>
<path fill="#424CEE" opacity="1.000000" stroke="none" 
	d="
M171.720276,120.129349 
	C169.637939,118.551743 167.555603,116.974144 165.228607,115.171036 
	C164.983948,114.945541 164.997910,114.475540 165.275360,114.114609 
	C166.359207,113.141457 167.165588,112.529236 168.275238,111.806320 
	C170.048737,110.789215 171.518951,109.882805 173.303040,108.834602 
	C175.072586,108.132088 176.528244,107.571365 178.112274,107.228500 
	C178.537369,107.588753 178.834106,107.731163 179.130844,107.873573 
	C179.130844,107.873573 179.100998,107.883255 179.179474,108.136917 
	C179.452286,108.693069 179.728485,108.860664 180.086563,108.893356 
	C180.086563,108.893356 180.011734,108.980247 180.133331,109.185196 
	C180.449203,109.693298 180.725815,109.859230 181.084763,109.887932 
	C181.084763,109.887932 181.126755,109.873810 181.061279,110.228188 
	C177.903961,113.764824 174.812119,116.947083 171.720276,120.129349 
z"/>
<path fill="#4888F2" opacity="1.000000" stroke="none" 
	d="
M167.971970,111.917023 
	C167.165588,112.529236 166.359207,113.141457 165.274887,113.879501 
	C162.230804,110.763397 159.254471,107.657921 156.953720,104.113861 
	C156.652374,103.649651 159.815536,100.936325 161.822266,99.446472 
	C164.170959,103.724503 166.071472,107.820763 167.971970,111.917023 
z"/>
<path fill="#4579F0" opacity="1.000000" stroke="none" 
	d="
M168.275238,111.806328 
	C166.071472,107.820763 164.170959,103.724503 162.128235,99.310471 
	C162.900223,98.182358 163.814407,97.372002 164.864288,96.280518 
	C165.804260,95.749878 166.608505,95.500381 167.712234,95.503082 
	C168.795883,97.490662 169.684052,99.187798 170.339722,100.970451 
	C171.309525,103.607224 172.114197,106.304741 172.989166,108.976395 
	C171.518951,109.882805 170.048737,110.789215 168.275238,111.806328 
z"/>
<path fill="#3E3BEB" opacity="1.000000" stroke="none" 
	d="
M157.224442,159.885330 
	C159.309158,161.457596 161.393890,163.029877 163.594925,165.093018 
	C163.427689,166.286758 163.144150,166.989609 162.860596,167.692459 
	C162.860596,167.692459 162.425903,167.755280 161.911377,167.856323 
	C160.908203,168.290802 160.419571,168.624222 159.930939,168.957642 
	C156.737595,170.782257 153.544250,172.606873 150.137878,174.697266 
	C148.839935,175.329086 147.755035,175.695129 146.327179,176.130463 
	C145.984222,176.199768 145.550095,176.067566 145.324677,176.081039 
	C142.697433,173.984940 140.295593,171.875381 138.138519,169.423355 
	C140.026443,168.453690 141.739075,167.963745 143.299698,167.173508 
	C147.973190,164.807114 152.587204,162.323303 157.224442,159.885330 
z"/>
<path fill="#4888F2" opacity="1.000000" stroke="none" 
	d="
M162.932648,168.080078 
	C163.144150,166.989609 163.427689,166.286758 163.835419,165.319183 
	C165.074539,164.425079 166.189468,163.795731 167.838120,162.978699 
	C168.657883,162.620300 168.868378,162.382645 169.003326,162.078064 
	C169.003326,162.078064 169.016235,162.004211 169.053375,162.010712 
	C171.636246,161.741577 173.593933,162.427109 172.950516,165.433868 
	C171.702621,171.265381 170.187378,177.039658 168.403763,182.923004 
	C167.124176,181.158127 166.009766,179.378235 165.373260,177.441299 
	C164.409149,174.507462 163.777542,171.464386 162.932648,168.080078 
z"/>
<path fill="#4888F2" opacity="1.000000" stroke="none" 
	d="
M160.246750,168.951782 
	C160.419571,168.624222 160.908203,168.290802 161.703796,167.928009 
	C161.528030,168.247726 161.045288,168.596817 160.246750,168.951782 
z"/>
<path fill="#4EC3F5" opacity="1.000000" stroke="none" 
	d="
M207.682205,175.825165 
	C208.105011,169.420166 207.019928,163.423386 202.540131,157.778778 
	C199.751373,152.882278 197.344391,148.449326 195.243744,143.876633 
	C198.255508,141.189545 200.960907,138.642212 203.586899,136.169647 
	C204.919815,137.280106 205.953018,138.140869 206.986221,139.001633 
	C207.797516,141.860489 208.608826,144.719360 209.700851,147.797165 
	C210.464630,149.532257 210.947693,151.048401 211.688507,152.779526 
	C212.302139,155.398376 212.658035,157.802246 213.053314,160.620361 
	C213.075668,163.071304 213.058609,165.107971 213.068176,167.582428 
	C212.134918,170.125153 211.175049,172.230118 210.072327,174.652161 
	C209.623138,175.071808 209.374649,175.253448 208.756210,175.719757 
	C208.113037,175.891937 207.897614,175.858551 207.682205,175.825165 
z"/>
<path fill="#4367EF" opacity="1.000000" stroke="none" 
	d="
M207.604797,176.036743 
	C207.897614,175.858551 208.113037,175.891937 208.655304,175.931030 
	C208.716766,176.202698 208.451385,176.468689 207.889923,176.714325 
	C207.593857,176.693970 207.527405,176.248322 207.604797,176.036743 
z"/>
<path fill="#4367EF" opacity="1.000000" stroke="none" 
	d="
M206.844696,177.796799 
	C206.756927,177.524231 206.978500,177.191086 207.494781,176.787643 
	C207.577682,177.056976 207.365845,177.396591 206.844696,177.796799 
z"/>
<path fill="#456BEF" opacity="1.000000" stroke="none" 
	d="
M173.303055,108.834595 
	C172.114197,106.304741 171.309525,103.607224 170.339722,100.970451 
	C169.684052,99.187798 168.795883,97.490662 168.008636,95.380798 
	C169.545761,94.179878 171.085968,93.353447 172.813385,92.262894 
	C173.749435,91.998573 174.498276,91.998367 175.621414,91.998161 
	C176.857864,96.688240 178.154602,101.044044 184.172455,102.148941 
	C184.501266,102.367569 184.414169,102.525864 184.120087,102.860451 
	C182.289108,104.125824 180.665115,105.214897 178.766388,106.653824 
	C178.322403,107.005997 178.153152,107.008316 177.983902,107.010643 
	C176.528244,107.571365 175.072586,108.132088 173.303055,108.834595 
z"/>
<path fill="#4BB8F6" opacity="1.000000" stroke="none" 
	d="
M207.354065,138.996841 
	C205.953018,138.140869 204.919815,137.280106 203.586899,136.169647 
	C200.960907,138.642212 198.255508,141.189545 194.972107,143.742081 
	C193.608017,142.830978 192.821945,141.914658 192.371033,140.948837 
	C195.474533,138.264923 198.242889,135.630508 201.011246,132.996109 
	C204.014404,133.035034 207.017578,133.073959 210.386841,133.052612 
	C211.003693,133.246170 211.254440,133.500000 211.824722,134.119598 
	C212.409164,134.678802 212.674042,134.872223 212.938934,135.065659 
	C212.938934,135.065659 212.908569,135.095474 212.895935,135.115112 
	C213.224289,136.195847 213.565262,137.256943 213.933807,138.654480 
	C211.881577,138.991302 209.801743,138.991684 207.354065,138.996841 
z"/>
<path fill="#478BF1" opacity="1.000000" stroke="none" 
	d="
M144.971680,103.043655 
	C144.654938,102.975998 144.342865,102.830498 143.902130,102.457306 
	C143.773468,102.229614 143.913727,102.089836 144.175751,102.128960 
	C144.679565,102.337959 144.870285,102.553116 145.009933,102.813538 
	C145.009933,102.813538 144.976349,102.965820 144.971680,103.043655 
z"/>
<path fill="#4579F0" opacity="1.000000" stroke="none" 
	d="
M145.258575,102.867767 
	C144.870285,102.553116 144.679565,102.337959 144.247833,102.061089 
	C143.708633,99.201157 143.066818,96.437012 143.171600,93.701469 
	C143.207428,92.766052 145.115921,91.902374 146.586411,91.012161 
	C147.486923,93.851730 147.969833,96.685059 148.734161,99.770737 
	C148.199722,100.924385 147.383850,101.825684 146.289886,102.857819 
	C145.843597,102.966431 145.675415,102.944214 145.258575,102.867767 
z"/>
<path fill="#456BEF" opacity="1.000000" stroke="none" 
	d="
M125.078888,156.281616 
	C128.538666,152.851517 131.615845,149.292709 136.521683,148.067108 
	C138.014984,147.694031 139.104691,145.705475 140.637817,144.251434 
	C142.904968,146.085098 144.913528,148.124161 146.673431,150.537872 
	C140.431625,153.678299 133.964035,155.687561 129.785629,161.347153 
	C128.446442,160.211639 127.107269,159.076111 125.446487,157.877289 
	C125.112556,157.405899 125.100227,156.997787 125.078888,156.281616 
z"/>
<path fill="#445BEF" opacity="1.000000" stroke="none" 
	d="
M129.812500,161.535553 
	C133.964035,155.687561 140.431625,153.678299 146.809769,150.838470 
	C147.194763,150.764404 147.162903,150.843872 147.212097,151.139603 
	C147.910004,151.923279 148.558701,152.411224 149.207382,152.899170 
	C149.207382,152.899170 149.082626,152.928604 149.181793,153.215820 
	C149.006805,154.745285 149.142960,156.664124 148.391769,157.119659 
	C143.605713,160.021835 138.624100,162.601578 133.706894,165.287506 
	C133.706894,165.287506 133.757645,165.177094 133.733429,164.937225 
	C133.384415,164.521591 133.059616,164.345810 132.734818,164.170013 
	C132.734818,164.170013 132.861099,164.132568 132.784210,163.915344 
	C132.383423,163.521194 132.059509,163.344299 131.735596,163.167389 
	C131.735596,163.167404 131.888794,163.156708 131.790100,162.931458 
	C131.157883,162.474045 130.624359,162.241867 130.090820,162.009705 
	C130.090820,162.009705 129.839386,161.723969 129.812500,161.535553 
z"/>
<path fill="#424CEE" opacity="1.000000" stroke="none" 
	d="
M133.792236,165.587433 
	C138.624100,162.601578 143.605713,160.021835 148.391769,157.119659 
	C149.142960,156.664124 149.006805,154.745285 149.183807,153.151764 
	C151.701584,154.956726 154.316483,157.112991 157.077911,159.577301 
	C152.587204,162.323303 147.973190,164.807114 143.299698,167.173508 
	C141.739075,167.963745 140.026443,168.453690 137.964600,169.125702 
	C136.323135,168.076111 135.100357,166.981735 133.792236,165.587433 
z"/>
<path fill="#424CEE" opacity="1.000000" stroke="none" 
	d="
M130.149368,162.309784 
	C130.624359,162.241867 131.157883,162.474045 131.766846,163.004639 
	C131.297485,163.071991 130.752701,162.840927 130.149368,162.309784 
z"/>
<path fill="#424CEE" opacity="1.000000" stroke="none" 
	d="
M132.793152,164.455872 
	C133.059616,164.345810 133.384415,164.521591 133.777344,164.979233 
	C133.514130,165.087982 133.182816,164.914856 132.793152,164.455872 
z"/>
<path fill="#424CEE" opacity="1.000000" stroke="none" 
	d="
M131.792023,163.454544 
	C132.059509,163.344299 132.383423,163.521194 132.773102,163.980255 
	C132.508728,164.088837 132.178604,163.915268 131.792023,163.454544 
z"/>
<path fill="#424CEE" opacity="1.000000" stroke="none" 
	d="
M212.853882,134.829132 
	C212.674042,134.872223 212.409164,134.678802 212.058685,134.247192 
	C212.238342,134.203552 212.503586,134.398071 212.853882,134.829132 
z"/>
<path fill="#424CEE" opacity="1.000000" stroke="none" 
	d="
M185.295502,102.061691 
	C185.482056,101.739891 185.980789,101.413681 186.796021,101.088776 
	C186.610886,101.412468 186.109283,101.734879 185.295502,102.061691 
z"/>
<path fill="#4367EF" opacity="1.000000" stroke="none" 
	d="
M171.895355,120.419113 
	C174.812119,116.947083 177.903961,113.764824 181.083374,110.229568 
	C182.690170,111.038788 184.209366,112.201004 185.864914,114.030289 
	C183.421280,118.429649 180.841309,122.161926 178.261322,125.894196 
	C176.197693,124.165756 174.134048,122.437317 171.895355,120.419113 
z"/>
<path fill="#478BF1" opacity="1.000000" stroke="none" 
	d="
M186.062225,133.984924 
	C184.706039,132.577164 183.349838,131.169418 182.163086,129.314163 
	C185.549561,125.701622 189.933060,123.359222 190.010269,117.979866 
	C191.261276,119.442604 192.512299,120.905342 193.886154,123.036469 
	C191.360077,127.131546 188.711151,130.558228 186.062225,133.984924 
z"/>
<path fill="#4579F0" opacity="1.000000" stroke="none" 
	d="
M189.866852,117.696236 
	C189.933060,123.359222 185.549561,125.701622 182.003555,129.020660 
	C180.608795,128.276947 179.542999,127.379227 178.369278,126.187851 
	C180.841309,122.161926 183.421280,118.429649 186.018600,114.321198 
	C187.265106,115.100883 188.494278,116.256744 189.866852,117.696236 
z"/>
<path fill="#48A1F3" opacity="1.000000" stroke="none" 
	d="
M186.216492,134.268097 
	C188.711151,130.558228 191.360077,127.131546 194.030762,123.330559 
	C195.286316,124.431190 196.520126,125.906120 197.846817,128.028290 
	C196.857346,130.053299 195.672363,131.363968 194.717239,132.824921 
	C193.362228,134.897522 192.176483,137.080795 190.918396,139.216766 
	C189.402527,137.661606 187.886658,136.106445 186.216492,134.268097 
z"/>
<path fill="#49ADF4" opacity="1.000000" stroke="none" 
	d="
M190.919922,139.500916 
	C192.176483,137.080795 193.362228,134.897522 194.717239,132.824921 
	C195.672363,131.363968 196.857346,130.053299 197.979279,128.328186 
	C198.993439,129.425995 199.968048,130.871155 200.976944,132.656204 
	C198.242889,135.630508 195.474533,138.264923 192.106903,140.939392 
	C191.332855,140.959152 191.158081,140.938858 190.983307,140.918579 
	C190.962692,140.540741 190.942062,140.162888 190.919922,139.500916 
z"/>
<path fill="#4367EF" opacity="1.000000" stroke="none" 
	d="
M181.003571,109.655334 
	C180.725815,109.859230 180.449203,109.693298 180.179962,109.151886 
	C180.451157,108.964989 180.723633,109.134689 181.003571,109.655334 
z"/>
<path fill="#4367EF" opacity="1.000000" stroke="none" 
	d="
M180.002396,108.662079 
	C179.728485,108.860664 179.452286,108.693069 179.183075,108.152176 
	C179.454544,107.966507 179.724564,108.138847 180.002396,108.662079 
z"/>
<path fill="#4367EF" opacity="1.000000" stroke="none" 
	d="
M178.112274,107.228500 
	C178.153152,107.008316 178.322403,107.005997 178.745514,107.001686 
	C178.999390,106.999695 179.112976,107.430344 179.121918,107.651962 
	C178.834106,107.731163 178.537369,107.588753 178.112274,107.228500 
z"/>
<path fill="#415EEE" opacity="1.000000" stroke="none" 
	d="
M190.681671,141.052032 
	C191.158081,140.938858 191.332855,140.959152 191.771759,140.988892 
	C192.821945,141.914658 193.608017,142.830978 194.665741,143.881836 
	C197.344391,148.449326 199.751373,152.882278 202.215973,157.692261 
	C200.650299,159.929489 199.027008,161.789673 196.735535,163.811584 
	C194.373291,162.961227 191.996231,162.352295 191.115463,160.860138 
	C188.645584,156.675812 186.793152,152.127029 184.697144,147.722015 
	C184.697144,147.722015 184.802826,147.722244 185.049225,147.711578 
	C185.458084,147.374924 185.620544,147.048950 185.783005,146.722961 
	C185.783005,146.722961 185.811264,146.846054 186.052124,146.768463 
	C186.539536,146.171021 186.786118,145.651184 187.032700,145.131348 
	C188.148483,143.816071 189.264267,142.500778 190.681671,141.052032 
z"/>
<path fill="#456BEF" opacity="1.000000" stroke="none" 
	d="
M184.391266,147.830627 
	C186.793152,152.127029 188.645584,156.675812 191.115463,160.860138 
	C191.996231,162.352295 194.373291,162.961227 196.441101,163.964264 
	C193.764267,166.900360 190.713669,169.845490 187.348389,172.906219 
	C182.985672,172.275223 183.928421,169.548065 184.531647,166.870865 
	C185.591202,162.168396 182.874588,156.705917 178.304245,154.401184 
	C180.078400,152.085938 182.081894,150.012589 184.391266,147.830627 
z"/>
<path fill="#424CEE" opacity="1.000000" stroke="none" 
	d="
M149.126846,152.592255 
	C148.558701,152.411224 147.910004,151.923279 147.170197,151.130859 
	C147.734833,151.312714 148.390564,151.799026 149.126846,152.592255 
z"/>
<path fill="#456BEF" opacity="1.000000" stroke="none" 
	d="
M186.773682,145.248047 
	C186.786118,145.651184 186.539536,146.171021 185.993378,146.745239 
	C185.967422,146.321350 186.241043,145.843048 186.773682,145.248047 
z"/>
<path fill="#4876F0" opacity="1.000000" stroke="none" 
	d="
M168.761475,162.136017 
	C168.868378,162.382645 168.657883,162.620300 168.146790,162.878143 
	C168.018509,162.628662 168.217789,162.371567 168.761475,162.136017 
z"/>
<path fill="#456BEF" opacity="1.000000" stroke="none" 
	d="
M185.517914,146.796783 
	C185.620544,147.048950 185.458084,147.374924 185.010284,147.747284 
	C184.900879,147.485977 185.076843,147.178299 185.517914,146.796783 
z"/>
</svg>